<!--?xml version="1.0" encoding="utf-8"?-->
<!-- Generator: Adobe Illustrator 18.1.1, SVG Export Plug-In . SVG Version: 6.00 Build 0)  -->

<svg version="1.1" id="_x31_0" xmlns="http://www.w3.org/2000/svg" xmlns:xlink="http://www.w3.org/1999/xlink" x="0px" y="0px" viewBox="0 0 512 512" style="enable-background:new 0 0 512 512;" xml:space="preserve">
<style type="text/css">
	.st0{fill:#374149;}
</style>
<g>
	<path class="st0" d="M256,0C114.614,0,0,114.614,0,256s114.614,256,256,256s256-114.614,256-256S397.386,0,256,0z M256,448
		c-105.867,0-192-86.133-192-192S150.133,64,256,64s192,86.133,192,192S361.867,448,256,448z" style="fill: rgb(0, 0, 0);"></path>
	<path class="st0" d="M365.125,248.742v-28.946c0-4.176-3.414-7.59-7.59-7.59s-7.594,3.414-7.594,7.59v14.336l-0.07,6.594
		l-20.11-10.566v-28.613c0-4.176-3.418-7.594-7.594-7.594s-7.594,3.418-7.594,7.594v14.109l-0.07,6.485l-31.614-16.606l1.672-67
		c0-15.711-12.855-28.562-28.562-28.562c-15.711,0-28.562,12.851-28.562,28.562l1.672,67l-21.699,11.398l-9.989,5.164v-20.55
		c0-4.176-3.418-7.594-7.594-7.594c-4.176,0-7.59,3.418-7.59,7.594v28.613l-13.852,7.278l-6.332,3.242v-20.883
		c0-4.176-3.414-7.59-7.59-7.59c-4.18,0-7.594,3.414-7.594,7.59v28.946l-36.637,19.25v24.398l-0.043,6.734l0.043-0.011v0.164
		l96.934-26.676l23.453-6.414l2.469,98.938l-22.554,7.551c-3.164,1.058-5.297,4.019-5.297,7.355v14.23
		c0,5.336,5.262,9.078,10.301,7.332l37.918-13.141c1.649-0.57,3.438-0.57,5.082,0l37.918,13.141
		c5.043,1.746,10.301-1.996,10.301-7.332v-14.23c0-3.336-2.133-6.297-5.297-7.355l-22.554-7.551l2.004-80.16l0.504-18.809
		l94.554,26.024l25.637,7.102v-0.047l0.16,0.043v-31.286L365.125,248.742z" style="fill: rgb(0, 0, 0);"></path>
</g>
</svg>
